# xmcd
# Track frame offsets:
# 150
# 16132
# 33450
# 50512
# 66410
# 83327
# 97310
# 109190
# 126225
# 141222
# 155845
# 174537
# 188560
# 206515
#
# Disc length: 3017 seconds
# Revision: 0
# Processed by: cddbd v1.4PL0 Copyright (c) Steve Scherf et al.
# Submitted via: VisiTrax 2.9.5.180 - For more info visit www.synapsa.com
#
DISCID=c30bc70e
DTITLE=Anni Filt - Cloud Walker
DYEAR=1900
DGENRE=
TTITLE0=Cloud walker
TTITLE1=The love that we lost
TTITLE2=Back in your arms again
TTITLE3=Autumn in the rockies
TTITLE4=A lovers lullabye
TTITLE5=I just might be
TTITLE6=Now that's all right with me
TTITLE7=You're still the one
TTITLE8=Just like the weather
TTITLE9=I won't take anymore
TTITLE10=Say you love me
TTITLE11=Heaven's just a sin away
TTITLE12=Who's that girl
TTITLE13=The rose
EXTD=
EXTT0=
EXTT1=
EXTT2=
EXTT3=
EXTT4=
EXTT5=
EXTT6=
EXTT7=
EXTT8=
EXTT9=
EXTT10=
EXTT11=
EXTT12=
EXTT13=
PLAYORDER=
